<?xml version="1.0" standalone="no"?>
<!DOCTYPE svg PUBLIC "-//W3C//DTD SVG 20010904//EN"
 "http://www.w3.org/TR/2001/REC-SVG-20010904/DTD/svg10.dtd">
<svg version="1.0" xmlns="http://www.w3.org/2000/svg"
 width="512.000000pt" height="512.000000pt" viewBox="0 0 512.000000 512.000000"
 preserveAspectRatio="xMidYMid meet">
<metadata>
Created by potrace 1.16, written by Peter Selinger 2001-2019
</metadata>
<g transform="translate(0.000000,512.000000) scale(0.100000,-0.100000)"
fill="#000000" stroke="none">
<path d="M2400 4900 c-788 -58 -1492 -532 -1859 -1250 -115 -225 -186 -439
-232 -697 -20 -111 -23 -162 -24 -383 0 -165 5 -285 13 -340 30 -190 116 -507
137 -504 5 1 36 46 70 100 42 68 79 147 118 251 l57 153 -12 77 c-19 124 -16
429 5 557 39 233 121 471 227 660 l50 90 -29 28 c-99 97 -72 259 64 387 90 84
135 97 286 85 l113 -9 58 42 c447 329 988 445 1528 329 186 -41 438 -147 603
-255 43 -28 88 -51 101 -51 50 0 131 -35 169 -73 40 -40 76 -107 77 -142 0
-11 27 -51 61 -90 164 -188 290 -406 374 -645 79 -223 107 -392 110 -670 2
-199 3 -208 33 -300 17 -52 45 -147 63 -210 38 -141 45 -155 105 -210 l48 -44
24 74 c77 249 106 472 99 760 -9 387 -85 693 -256 1028 -305 595 -844 1029
-1482 1192 -196 50 -490 75 -699 60z"/>
<path d="M2915 4066 c-88 -39 -130 -165 -81 -241 9 -13 65 -58 126 -100 112
-78 135 -104 151 -175 7 -31 2 -43 -55 -130 -35 -52 -91 -128 -124 -168 -34
-40 -63 -83 -64 -95 -3 -47 4 -83 23 -115 l19 -33 -45 32 c-84 60 -182 46
-216 -32 -9 -19 -22 -49 -30 -68 l-15 -34 -193 343 c-270 482 -374 637 -469
702 l-45 31 -326 4 c-179 2 -351 5 -382 6 -47 2 -62 -2 -98 -27 -87 -61 -135
-173 -98 -230 12 -18 32 -27 74 -36 80 -16 157 -54 171 -85 31 -67 -9 -235
-100 -421 -55 -111 -54 -137 6 -199 l41 -43 -37 0 c-38 -1 -86 -21 -106 -45
-6 -7 -46 -118 -87 -245 -109 -333 -278 -782 -321 -855 -110 -183 -221 -307
-326 -363 -71 -39 -100 -89 -95 -162 6 -85 66 -148 140 -146 32 1 59 12 117
49 159 103 316 141 548 131 111 -4 151 -2 177 8 57 24 90 97 79 174 -10 65
-41 104 -104 129 -63 25 -67 33 -69 149 -3 198 78 460 238 769 43 83 80 165
84 183 9 43 -11 89 -55 128 l-34 30 60 11 c52 10 67 18 97 52 20 22 53 72 73
111 l37 70 37 -19 c90 -46 222 -224 322 -436 176 -371 354 -969 415 -1395 20
-135 31 -167 74 -203 26 -22 43 -27 85 -27 50 0 55 2 127 66 41 37 154 143
251 236 156 149 179 175 197 224 12 30 21 67 21 83 0 32 -50 159 -135 341 -32
69 -64 148 -71 175 -19 70 -17 159 5 246 11 41 33 127 50 192 38 144 41 220
14 276 -11 23 -18 41 -14 41 3 0 24 -12 45 -26 47 -32 120 -37 160 -11 51 34
67 20 153 -133 215 -383 395 -901 368 -1062 -8 -43 -69 -109 -175 -188 -30
-22 -59 -48 -64 -58 -21 -38 -24 -95 -7 -146 15 -43 24 -54 61 -73 63 -32 95
-29 170 17 137 84 253 110 499 110 172 0 283 -19 452 -76 115 -40 147 -40 205
-5 46 28 69 101 53 165 -13 51 -65 103 -225 224 -92 69 -160 141 -182 192 -8
19 -30 91 -49 160 -105 388 -278 832 -491 1266 -122 247 -125 259 -138 514 -5
100 -11 144 -25 171 -34 68 -90 86 -194 62 -67 -15 -80 -14 -305 11 -335 37
-341 38 -375 22z"/>
<path d="M4005 1233 c-34 -4 -52 -16 -115 -77 -383 -369 -833 -557 -1333 -556
-486 1 -927 181 -1300 530 l-67 62 -192 0 c-191 1 -263 -7 -263 -29 0 -20 128
-175 230 -277 358 -360 799 -581 1300 -651 155 -22 429 -22 590 0 600 81 1135
398 1512 895 l65 85 -49 12 c-45 10 -291 14 -378 6z"/>
</g>
</svg>
